<?xml version="1.0" standalone="no"?>
<!DOCTYPE svg PUBLIC "-//W3C//DTD SVG 20010904//EN"
 "http://www.w3.org/TR/2001/REC-SVG-20010904/DTD/svg10.dtd">
<svg version="1.0" xmlns="http://www.w3.org/2000/svg"
 width="1344.000000pt" height="1344.000000pt" viewBox="0 0 1344.000000 1344.000000"
 preserveAspectRatio="xMidYMid meet">
<metadata>
Created by potrace 1.11, written by Peter Selinger 2001-2013
</metadata>
<g transform="translate(0.000000,1344.000000) scale(0.100000,-0.100000)"
fill="#000000" stroke="none">
<path d="M9037 11824 c-1 -1 -78 -5 -172 -9 -184 -8 -198 -9 -265 -19 -25 -3
-63 -8 -85 -10 -72 -8 -271 -40 -345 -56 -25 -5 -56 -12 -70 -14 -14 -3 -65
-14 -115 -26 -49 -12 -97 -24 -105 -25 -116 -26 -399 -119 -585 -192 -1013
-398 -1732 -1195 -1970 -2187 -60 -246 -96 -594 -97 -937 l-1 -166 -301 3
c-361 3 -506 11 -711 39 -131 18 -156 23 -240 40 -38 9 -79 17 -90 19 -11 2
-137 34 -280 69 -237 60 -359 87 -455 102 -19 3 -46 7 -60 10 -14 2 -56 7 -93
10 -37 4 -77 8 -87 10 -78 15 -535 22 -760 11 -152 -7 -179 -9 -290 -20 -30
-3 -80 -8 -110 -11 -93 -9 -418 -65 -551 -95 -492 -111 -809 -251 -1005 -445
-144 -141 -189 -244 -189 -425 1 -236 79 -391 430 -861 90 -120 185 -255 213
-301 56 -93 156 -290 197 -388 74 -177 212 -419 333 -583 162 -219 397 -451
639 -630 l91 -67 -29 -54 c-42 -77 -58 -129 -64 -209 -22 -264 175 -589 550
-907 28 -23 61 -52 75 -64 95 -82 369 -271 555 -383 278 -167 619 -337 914
-455 153 -62 432 -155 490 -164 40 -6 44 -10 73 -70 79 -161 249 -305 480
-405 272 -118 662 -191 1233 -229 186 -12 792 -4 1005 14 325 27 471 47 642
87 l87 21 56 -49 c70 -63 195 -126 305 -155 70 -18 114 -22 250 -22 91 -1 192
2 225 6 267 31 637 150 1095 353 1066 472 1937 1118 2473 1831 286 381 543
867 742 1404 196 530 289 897 350 1390 26 215 27 816 1 1055 -114 1064 -521
2005 -1185 2747 -509 568 -1050 941 -1713 1181 -202 74 -526 156 -708 182
-191 26 -254 32 -405 41 -96 5 -364 11 -368 8z m-7332 -3804 c3 -5 1 -10 -4
-10 -6 0 -11 5 -11 10 0 6 2 10 4 10 3 0 8 -4 11 -10z"/>
</g>
</svg>
